<svg xmlns="http://www.w3.org/2000/svg" viewBox="0 0 177.809 177.809" fill="#ffc750"><path d="M132.534 152.942C126.145 143.152 32.616 20.01 18.596 3.107c-1.946-2.348-4.265-1.612-5.133-.756-1.508 1.486-2.412 3.655.745 16.652C16.099 26.79 30.86 70.202 35.89 82.675c10.235 25.374 16.786 24.537 20.539 25.02a7.348 7.348 0 0 0 5.157-1.247c4.197-2.864 5.597-3.699 7.218-4.667a156.28 156.28 0 0 0 1.936-1.169c4.537 7.434 10.138 18.967 15.576 30.164 7.317 15.067 14.884 30.648 20.93 38.711 3.845 5.125 8.003 6.633 10.815 6.994 5.382.692 10.948-2.192 14.183-7.348 3.283-5.233 3.394-11.438.29-16.191zm-6.006 12.602c-1.839 2.933-4.824 4.597-7.604 4.239-2.182-.28-4.353-1.785-6.275-4.349-5.658-7.543-13.08-22.827-20.259-37.609-6.558-13.503-12.752-26.258-17.819-33.751a3.37 3.37 0 0 0-4.626-.944c-2.266 1.463-7.795 4.76-12.163 7.741-.2.137-.317.15-.49.129-2.315 1.198-2.462-.561-6.369-5.864-6.295-8.541-24.065-58.716-29.205-75.196-1.994-6.391.13-2.867 1.692-.857 16.886 21.724 97.265 128.039 103.472 137.55 1.969 3.014 1.108 6.58-.354 8.911zM176.857 35.657a3.373 3.373 0 0 0-4.772-.071c-8.615 8.358-16.65 16.508-23.106 23.057-1.649 1.674-3.16 3.206-4.528 4.587l-6.365-6.37 26.897-26.098a3.375 3.375 0 0 0-4.701-4.844l-26.969 26.167-5.992-5.997 27.058-26.254a3.374 3.374 0 1 0-4.7-4.844L122.55 41.313l-5.837-5.842L146.03 7.023a3.372 3.372 0 0 0 .071-4.771 3.372 3.372 0 0 0-4.771-.072l-33.74 32.738c-8.623 8.366-7.957 20.653 1.438 31.985l-19.189 18.9a3.373 3.373 0 0 0 1.795 5.75 3.37 3.37 0 0 0 2.906-.907l19.203-18.914c3.781 3.148 8.251 5.231 12.947 6.011a24.3 24.3 0 0 0 1.826.236c6.129.57 11.745-1.144 15.412-4.702 2.342-2.271 5.657-5.635 9.856-9.894 6.433-6.524 14.438-14.645 23-22.951a3.379 3.379 0 0 0 .073-4.775zm-37.63 32.775c-2.217 2.149-5.987 3.206-10.087 2.824-4.737-.44-9.29-2.684-12.812-6.314-6.9-7.112-11.598-17.279-4.449-24.758l27.792 27.815-.444.433z"/><path d="M74.589 116.551a3.374 3.374 0 0 0-4.765.281c-13.581 15.281-38.227 42.276-46.543 49.652-4.134 3.667-10.646 2.188-14.133-1.496-3.647-3.852-3.097-8.73 1.509-13.388 11.695-11.819 28.924-25.353 41.919-35.153a3.376 3.376 0 0 0-4.064-5.39c-13.162 9.926-30.649 23.663-42.653 35.795-8.742 8.837-6.332 17.792-1.612 22.776 2.667 2.815 6.444 4.841 10.456 5.507 4.464.741 9.219-.199 13.057-3.604 9.61-8.523 37.266-39.142 47.11-50.219a3.371 3.371 0 0 0-.281-4.761z"/></svg>